<svg xmlns="http://www.w3.org/2000/svg" version="1.1" xmlns:xlink="http://www.w3.org/1999/xlink" height="800px" width="800px" id="_x32_" viewBox="0 0 512 512" xml:space="preserve"><style type="text/css">
	.st0{fill:#000000;}
</style><g>
	<path class="st0" d="M256.001,0L29.89,130.537c0,47.476,4.506,88.936,12.057,125.463C88.61,481.721,256.001,512,256.001,512
		s167.389-30.279,214.053-256c7.551-36.527,12.057-77.986,12.057-125.463L256.001,0z M256.118,466.723
		c-0.035-0.012-0.082-0.028-0.117-0.039v-47.672V256H140.77H91.122c-6.67-29.738-11.109-63.506-12.394-101.93L255.999,51.728h0.002
		v51.73V256h115.27h49.625C385.636,413.404,287.327,456.774,256.118,466.723z"></path>
</g><style>@media (prefers-color-scheme: light) { :root { filter: none; } }
@media (prefers-color-scheme: dark) { :root { filter: invert(100%); } }
</style></svg>